<svg viewBox="0 0 425 512" xmlns="http://www.w3.org/2000/svg"><path d="M210 306.5q-9.5 0-17.75-3.5t-14.5-9.75T168 278.5t-3.5-18 3.5-17.75 9.75-14.5 14.5-9.75T210 215q19 0 32.25 13.25t13.25 32.25q0 9.5-3.5 18t-9.75 14.75-14.5 9.75-17.75 3.5zm73-46q0-4.5-.5-9.25t-1.5-8.75h20.5V343q0 4-2.5 6.5t-6.5 2.5h-165q-4 0-6.5-2.5t-2.5-6.5V242.5H139q-1 4-1.5 8.75t-.5 9.25q0 15 5.75 28.5t15.5 23.5 23.25 15.75T210 334t28.5-5.75 23.25-15.75 15.5-23.5 5.75-28.5zM212 51q43.5 0 81.5 16.5t66.5 44.75 45 66.25 16.5 81.5-16.5 81.5-45 66.5-66.5 45-81.5 16.5-81.5-16.5-66.25-45-44.75-66.5T3 260t16.5-81.5 44.75-66.25T130.5 67.5 212 51zm117 118q0-11.5-8-19.5t-19.5-8h-183q-11.5 0-19.5 8T91 169v183q0 11.5 8 19.5t19.5 8h183q11.5 0 19.5-8t8-19.5V169zm-36.5 0q4 0 6.5 2.75t2.5 6.75V206q0 4-2.5 6.5t-6.5 2.5H265q-4 0-6.75-2.5t-2.75-6.5v-27.5q0-4 2.75-6.75T265 169h27.5z"/></svg>