<svg fill="none" height="32" viewBox="0 0 32 32" width="32" xmlns="http://www.w3.org/2000/svg"><g clip-rule="evenodd" fill="#000" fill-rule="evenodd"><path d="m12.6 21.7c1 .6 2.2.9 3.4.9 3.7 0 6.6-3 6.6-6.5 0-1.8-.6-3.4-1.9-4.7-1.3-1.2-2.9-1.9-4.7-1.9-3.6 0-6.60001 3-6.60001 6.6 0 1.2.30001 2.4 1.00001 3.5l.2.3-.70001 2.4 2.50001-.7zm5.6-4.7c.2 0 1.2.5 1.4.6.0311.0156.0623.0287.0931.0417.1668.0704.3225.1362.4069.5583.1 0 .1.4-.1.9-.1.4-.9.9-1.3.9-.0678 0-.1327.0057-.202.0119-.3398.03-.786.0695-2.198-.5119-1.7525-.701-2.9675-2.4001-3.3087-2.8772-.0482-.0674-.0789-.1104-.0913-.1228-.017-.034-.0515-.0884-.0969-.1601-.2212-.3493-.7031-1.1102-.7031-1.9399 0-1 .5-1.5.7-1.7s.4-.2.5-.2h.4c.1 0 .3 0 .4.3.2.4.6 1.4.6 1.5 0 .0333.0111.0667.0222.1.0223.0667.0445.1333-.0222.2-.05.05-.075.1-.1.15s-.05.1-.1.15l-.3.3c-.1.1-.2.2-.1.4s.5.9 1.1 1.4c.6751.5907 1.2078.8254 1.4778.9443.05.022.091.0401.1222.0557.2 0 .3 0 .4-.1.05-.1.175-.25.3-.4s.25-.3.3-.4c.1-.2.2-.2.4-.1z"/><path d="m0 16c0-8.83656 7.16344-16 16-16 8.8366 0 16 7.16344 16 16 0 8.8366-7.1634 16-16 16-8.83656 0-16-7.1634-16-16zm16-8c2.1 0 4.1.8 5.6 2.3s2.4 3.5 2.4 5.6c0 4.4-3.6 8-8 8-1.3 0-2.6-.4-3.8-1l-4.2 1.1 1.10001-4c-.7-1.2-1.10001-2.6-1.10001-4 0-4.4 3.6-8 8-8z"/></g></svg>